<?xml version="1.0" standalone="no"?>
<!DOCTYPE svg PUBLIC "-//W3C//DTD SVG 20010904//EN"
 "http://www.w3.org/TR/2001/REC-SVG-20010904/DTD/svg10.dtd">
<svg version="1.0" xmlns="http://www.w3.org/2000/svg"
 width="500.000000pt" height="500.000000pt" viewBox="0 0 500.000000 500.000000"
 preserveAspectRatio="xMidYMid meet">

<g transform="translate(0.000000,500.000000) scale(0.100000,-0.100000)"
fill="#000000" stroke="none">
<path d="M515 4457 c3 -18 7 -41 9 -52 2 -11 4 -28 5 -38 0 -10 6 -15 11 -12
6 4 10 -5 10 -20 0 -19 4 -26 13 -22 8 3 20 1 28 -5 11 -8 11 -9 -3 -4 -10 3
-20 1 -23 -4 -8 -13 36 -82 49 -77 7 3 11 -8 11 -27 0 -26 4 -31 25 -32 31 0
50 -11 49 -27 0 -9 -2 -9 -6 1 -2 6 -11 12 -20 12 -21 0 -6 -39 28 -71 l29
-27 0 -144 c1 -78 1 -188 2 -243 l2 -100 -77 -3 -77 -3 0 -39 0 -39 76 -3 76
-3 1 -230 2 -230 30 -60 c59 -119 176 -170 380 -169 101 1 133 5 200 27 86 28
168 73 240 133 45 37 46 38 27 56 -18 18 -19 18 -63 -7 -77 -44 -196 -77 -284
-78 -68 -2 -86 2 -124 23 -76 43 -81 61 -81 317 l0 223 205 0 205 0 0 40 0 40
-205 0 -205 0 0 321 0 322 117 -7 c134 -9 247 -35 311 -72 l45 -27 19 23 c14
17 18 36 16 69 -3 44 -5 47 -43 60 -30 11 -118 15 -349 19 l-310 4 -18 24
c-11 13 -37 27 -61 32 -37 9 -38 10 -12 11 l30 1 -25 20 c-35 28 -182 100
-192 94 -4 -3 -13 -24 -19 -47 -11 -40 -12 -41 -22 -19 -7 15 -7 26 -1 30 5 4
15 18 23 32 7 14 10 22 6 18 -5 -4 -13 -4 -19 1 -6 4 -19 11 -28 14 -15 5 -17
1 -13 -26z m112 -44 c-14 -14 -19 -15 -29 -4 -11 10 -10 11 3 6 10 -4 20 -2
24 4 3 6 9 11 13 11 3 0 -1 -8 -11 -17z m58 -13 c3 -6 -1 -7 -9 -4 -18 7 -21
14 -7 14 6 0 13 -4 16 -10z m2 -81 c-9 -6 -14 -15 -11 -21 5 -7 2 -8 -5 -4 -9
6 -8 13 5 27 9 11 20 17 23 13 3 -3 -2 -10 -12 -15z m-72 -49 c-10 -11 -21
-18 -23 -15 -3 3 3 12 14 20 27 20 30 18 9 -5z"/>
<path d="M1735 4312 c-66 -24 -137 -70 -132 -85 3 -7 11 -10 18 -8 8 3 30 5
49 5 61 2 60 22 60 -715 0 -661 0 -665 21 -688 11 -12 32 -26 46 -32 36 -14
129 -11 167 5 70 29 66 -14 66 744 0 749 1 729 -58 768 -40 26 -172 30 -237 6z"/>
<path d="M2558 4319 c-59 -14 -154 -65 -194 -106 -20 -20 -50 -66 -67 -102
-26 -58 -31 -81 -36 -186 l-6 -120 -87 -3 -88 -3 0 -29 0 -30 91 0 90 0 -3
-517 c-4 -503 -5 -520 -27 -593 -28 -94 -61 -151 -108 -187 -33 -25 -45 -28
-114 -28 -73 0 -80 2 -109 30 -18 17 -41 47 -51 68 -19 37 -32 43 -64 31 -21
-9 -45 -56 -45 -92 0 -65 109 -112 264 -112 217 0 389 97 480 270 69 130 69
134 75 655 l6 470 108 3 107 3 0 29 0 29 -107 3 -108 3 0 165 c0 156 1 168 25
215 60 120 177 106 254 -31 30 -54 67 -59 96 -12 65 106 -51 189 -260 187 -47
-1 -102 -5 -122 -10z"/>
<path d="M4442 3995 c-18 -8 -34 -13 -35 -12 -1 1 -22 -7 -46 -17 -32 -15 -41
-24 -38 -38 3 -10 0 -21 -5 -25 -6 -3 -8 -1 -5 4 4 6 1 16 -6 22 -10 8 -22 4
-47 -18 -23 -18 -30 -30 -22 -35 7 -4 12 -12 12 -19 0 -8 -3 -8 -12 1 -20 20
-38 14 -80 -23 -35 -32 -42 -35 -76 -28 -70 15 -204 9 -256 -11 -118 -45 -182
-151 -158 -263 16 -76 58 -143 169 -265 152 -168 180 -221 152 -296 -11 -28
-26 -43 -59 -59 -78 -40 -159 -27 -241 38 -35 28 -69 34 -69 12 0 -12 60 -75
102 -106 56 -43 161 -77 238 -77 207 0 340 113 340 290 0 116 -35 173 -215
350 -136 134 -170 184 -159 239 10 50 56 81 118 81 90 0 124 -46 66 -88 -59
-44 -30 -112 49 -112 32 0 52 8 91 37 42 31 47 39 33 45 -16 6 -15 7 3 7 30 1
61 40 70 86 8 39 8 39 13 11 6 -29 6 -28 31 23 20 45 22 54 10 63 -13 8 -13 9
1 5 11 -4 22 9 37 45 12 28 19 55 16 59 -3 5 -1 9 4 9 5 0 9 6 9 13 0 7 3 25
7 40 7 31 4 32 -42 12z m1 -41 c9 -4 17 -10 17 -15 0 -12 -53 -7 -62 5 -9 14
1 28 15 22 7 -4 20 -9 30 -12z m-3 -38 c0 -2 -7 -7 -16 -10 -8 -3 -12 -2 -9 4
6 10 25 14 25 6z m-130 -50 c0 -6 15 -25 33 -44 18 -19 25 -30 15 -27 -10 4
-18 11 -18 16 0 5 -7 9 -15 9 -8 0 -15 -5 -15 -12 0 -6 -3 -8 -6 -5 -4 4 -2
13 5 20 8 11 5 20 -14 41 -30 33 -32 40 -5 24 11 -7 20 -17 20 -22z m-133 -58
c-3 -8 -6 -5 -6 6 -1 11 2 17 5 13 3 -3 4 -12 1 -19z m132 -132 c-3 -3 -11 5
-18 17 -13 21 -12 21 5 5 10 -10 16 -20 13 -22z m1 -20 c0 -3 -4 -8 -10 -11
-5 -3 -10 -1 -10 4 0 6 5 11 10 11 6 0 10 -2 10 -4z"/>
<path d="M3010 3795 c-135 -45 -212 -122 -272 -270 -31 -77 -32 -85 -32 -225
0 -134 2 -150 27 -215 60 -152 146 -238 282 -281 306 -97 587 124 596 471 5
163 -18 259 -84 357 -80 119 -190 176 -352 184 -77 4 -101 1 -165 -21z m198
-89 c35 -18 67 -76 81 -147 14 -68 29 -379 19 -379 -5 0 -8 -18 -8 -40 0 -100
-49 -227 -96 -249 -58 -26 -117 -2 -150 61 -60 116 -60 580 0 696 34 65 96 88
154 58z"/>
<path d="M2538 2420 c-157 -28 -290 -170 -349 -375 -21 -71 -24 -101 -24 -260
0 -156 3 -191 23 -263 47 -172 117 -269 240 -329 73 -37 80 -38 181 -38 98 0
111 2 173 32 37 17 87 50 113 74 43 40 45 43 28 61 -16 18 -17 18 -47 -11
-101 -95 -245 -103 -330 -17 -94 94 -131 238 -130 506 1 198 21 322 69 423 46
95 141 162 204 142 27 -8 48 -60 54 -139 4 -37 12 -75 18 -82 20 -24 83 -17
112 12 77 77 29 207 -90 248 -58 20 -180 28 -245 16z"/>
<path d="M3155 2250 c3 -5 8 -10 11 -10 2 0 4 5 4 10 0 6 -5 10 -11 10 -5 0
-7 -4 -4 -10z"/>
<path d="M3047 2224 c-14 -14 -7 -35 11 -32 9 2 17 10 17 17 0 16 -18 25 -28
15z"/>
<path d="M2997 2173 c-12 -11 -8 -23 8 -23 8 0 15 7 15 15 0 16 -12 20 -23 8z"/>
<path d="M3100 2161 c0 -6 5 -13 10 -16 6 -3 10 1 10 9 0 9 -4 16 -10 16 -5 0
-10 -4 -10 -9z"/>
<path d="M2997 2075 c-50 -19 -99 -54 -92 -66 4 -5 14 -5 25 1 26 14 36 13 54
-6 14 -13 16 -57 16 -330 l0 -314 33 -20 c42 -26 112 -26 155 0 l32 20 0 334
0 335 -24 28 c-21 24 -31 28 -92 30 -42 2 -84 -3 -107 -12z"/>
<path d="M3538 2076 c-100 -27 -155 -91 -145 -168 3 -22 13 -48 22 -58 37 -41
112 -32 134 17 16 35 6 58 -34 82 -40 23 -38 39 6 65 35 21 117 23 147 5 48
-30 67 -112 38 -168 -16 -30 -56 -53 -177 -101 -156 -63 -214 -149 -189 -282
13 -64 43 -106 94 -129 80 -36 182 -15 255 54 25 24 35 28 39 18 2 -8 19 -30
36 -48 56 -62 161 -53 234 18 43 42 44 67 1 42 -55 -33 -59 -15 -59 266 0 236
-1 248 -23 286 -27 47 -72 80 -140 100 -61 18 -174 18 -239 1z m170 -338 c8
-8 12 -49 12 -120 0 -123 -12 -158 -61 -183 -38 -20 -65 -12 -90 28 -23 39
-26 148 -4 200 28 67 109 109 143 75z"/>
<path d="M1354 2020 c-18 -6 -46 -23 -63 -39 -27 -25 -31 -36 -31 -79 0 -39 6
-57 25 -81 14 -16 35 -33 45 -36 15 -5 7 -13 -42 -38 -42 -22 -72 -46 -93 -75
-27 -40 -30 -51 -30 -122 0 -71 3 -82 30 -122 80 -114 300 -133 412 -34 65 56
88 140 59 210 -14 32 -13 33 18 44 82 30 123 135 77 194 -43 54 -132 43 -147
-18 -9 -35 9 -49 59 -49 36 0 42 -3 45 -22 5 -36 -37 -69 -102 -82 -31 -6 -80
-16 -110 -22 -75 -14 -106 -40 -106 -88 0 -20 5 -42 12 -49 19 -19 56 -14 68
8 12 22 6 38 -22 58 -25 18 -14 32 26 32 59 0 87 -58 66 -136 -27 -94 -110
-133 -175 -82 -39 30 -55 77 -55 159 0 118 47 183 140 195 28 4 50 10 50 14 0
4 -19 15 -43 24 -55 21 -81 63 -74 117 8 61 32 91 69 87 33 -3 43 -15 53 -61
8 -37 32 -45 58 -19 17 18 19 26 12 48 -16 45 -53 64 -130 69 -39 3 -84 0
-101 -5z"/>
<path d="M680 1043 c-30 -6 -51 -23 -28 -23 24 0 28 -30 28 -207 l0 -163 59 0
c44 0 65 5 85 21 36 29 56 70 56 120 0 33 -6 47 -34 75 -37 37 -57 41 -96 19
-14 -8 -29 -14 -34 -15 -4 0 -5 41 -1 90 4 50 3 89 -1 89 -5 -1 -20 -4 -34 -6z
m131 -202 c57 -57 27 -171 -45 -171 -52 0 -56 7 -56 91 0 75 1 79 28 93 37 21
39 20 73 -13z"/>
<path d="M2280 1043 c-30 -6 -51 -23 -28 -23 18 0 28 -28 28 -82 0 -35 -2 -38
-29 -38 -68 0 -125 -41 -141 -100 -28 -104 56 -186 137 -133 24 16 26 16 38 0
16 -23 48 -22 70 3 17 19 16 19 -11 17 l-29 -2 1 183 c1 100 -1 181 -5 181 -3
-1 -17 -4 -31 -6z m-12 -185 c7 -7 12 -40 12 -79 0 -59 -3 -70 -22 -83 -31
-22 -61 -20 -86 7 -59 63 -27 167 51 167 18 0 38 -5 45 -12z"/>
<path d="M2710 900 c-14 -4 -45 -5 -70 -2 -39 4 -51 0 -77 -22 -42 -35 -52
-80 -25 -116 l20 -27 -20 -21 c-24 -23 -18 -51 12 -59 26 -7 25 -11 -6 -45
-26 -26 -26 -28 -10 -52 30 -47 110 -46 166 1 24 20 30 32 28 56 -3 35 -34 51
-120 62 -39 5 -48 10 -48 26 0 19 8 23 47 19 25 -1 73 21 92 44 14 17 17 60 7
93 -5 17 -2 22 15 25 12 2 24 9 27 16 4 13 -1 14 -38 2z m-41 -62 c20 -36 5
-79 -32 -92 -52 -19 -96 51 -66 105 16 31 79 23 98 -13z m14 -214 c38 -11 9
-64 -42 -77 -29 -7 -70 8 -77 28 -4 8 1 27 11 41 15 23 21 25 53 19 21 -3 45
-8 55 -11z"/>
<path d="M1115 890 c-44 -18 -69 -58 -73 -118 -4 -52 -1 -61 23 -90 23 -28 33
-32 74 -32 53 0 84 18 106 60 18 35 19 99 3 135 -20 45 -83 66 -133 45z m60
-26 c52 -20 60 -154 11 -186 -22 -15 -57 -8 -81 17 -20 19 -25 34 -25 77 0 81
35 115 95 92z"/>
<path d="M1467 879 c-21 -11 -35 -24 -32 -29 3 -5 18 -2 33 6 15 7 32 14 39
14 21 0 43 -31 43 -59 0 -26 -5 -30 -59 -45 -74 -21 -92 -55 -51 -96 26 -26
62 -26 85 0 l18 20 14 -20 c16 -22 53 -26 71 -8 19 19 14 27 -15 25 l-28 -2 3
87 c3 77 1 89 -17 107 -26 26 -55 26 -104 0z m83 -147 c0 -57 -80 -69 -88 -14
-3 16 4 23 30 31 52 15 58 13 58 -17z"/>
<path d="M1830 893 c-8 -2 -22 -7 -30 -9 -13 -5 -12 -7 3 -15 24 -14 25 -173
0 -201 -15 -17 -14 -18 40 -18 56 0 88 16 45 22 -21 3 -23 9 -26 72 -2 53 1
72 14 87 20 23 54 25 54 4 0 -8 5 -15 10 -15 6 0 10 18 10 40 0 22 -3 40 -6
40 -14 0 -51 -24 -66 -44 -17 -21 -18 -21 -18 12 0 32 -3 35 -30 25z"/>
<path d="M2948 883 c-21 -8 -38 -22 -38 -29 0 -12 5 -12 30 1 16 8 34 15 40
15 18 0 50 -39 50 -63 0 -19 -10 -26 -62 -42 -56 -18 -63 -23 -66 -48 -7 -59
51 -86 101 -47 25 20 25 20 30 0 7 -26 48 -26 72 0 17 19 16 19 -11 17 l-29
-2 0 88 c0 81 -2 90 -24 108 -28 23 -44 23 -93 2z m78 -150 c-12 -48 -51 -66
-80 -37 -23 23 -20 33 17 49 53 23 70 20 63 -12z"/>
<path d="M3305 893 c-46 -10 -51 -14 -32 -24 24 -14 25 -173 0 -201 -15 -17
-14 -18 35 -18 52 0 77 14 42 23 -18 5 -20 14 -20 87 l0 81 35 15 c25 10 41
12 54 5 25 -14 31 -33 31 -100 0 -44 -5 -65 -21 -85 l-20 -26 50 0 c51 0 76
14 41 23 -18 5 -20 14 -20 80 0 58 4 77 18 89 31 28 59 31 81 9 17 -17 21 -34
21 -90 0 -49 -4 -72 -15 -81 -26 -22 -16 -30 35 -30 51 0 67 13 28 23 -20 6
-21 10 -15 92 6 82 5 88 -18 111 -29 29 -50 30 -93 4 l-33 -20 -26 20 c-32 25
-44 25 -95 -1 l-41 -21 6 21 c3 12 2 20 -1 20 -4 -1 -16 -3 -27 -6z"/>
<path d="M3884 881 c-72 -44 -84 -153 -23 -210 30 -28 98 -29 130 -1 l24 20
-37 -6 c-21 -3 -49 -3 -63 0 -26 7 -55 51 -55 85 0 18 8 20 78 23 76 3 77 3
80 30 4 36 -36 78 -75 78 -15 0 -42 -9 -59 -19z m84 -43 c3 -28 2 -28 -52 -28
-60 0 -64 4 -40 38 12 18 24 22 52 20 32 -3 37 -7 40 -30z"/>
<path d="M4245 891 c-32 -14 -57 -47 -53 -73 2 -15 22 -36 61 -61 74 -50 76
-87 3 -87 -27 0 -46 18 -46 42 0 10 -4 18 -10 18 -5 0 -10 -18 -10 -40 l0 -40
53 0 c54 0 88 18 101 53 9 28 -10 55 -64 88 -59 36 -67 54 -35 75 31 20 61 10
73 -24 l9 -27 8 34 c5 24 3 36 -6 42 -17 11 -57 10 -84 0z"/>
</g>
</svg>
